<?xml version="1.0" encoding="UTF-8"?>
<svg id="Layer_1" data-name="Layer 1" xmlns="http://www.w3.org/2000/svg" xmlns:xlink="http://www.w3.org/1999/xlink" viewBox="0 0 425.2 406.59">
  <defs>
    <style>
      .cls-1 {
        fill: url(#linear-gradient);
      }

      .cls-2 {
        fill: #1d1d1b;
      }
    </style>
    <linearGradient id="linear-gradient" x1="247.99" y1="253.59" x2="221.47" y2="253.59" gradientUnits="userSpaceOnUse">
      <stop offset=".07" stop-color="#023c59"/>
      <stop offset=".49" stop-color="#e63f28"/>
      <stop offset=".96" stop-color="#04ac90"/>
    </linearGradient>
  </defs>
  <path class="cls-2" d="m247.99,190.69h-17.52v-15.2c0-3.97-.74-7.1-2.21-9.4-1.47-2.3-3.59-3.45-6.35-3.45s-4.91,1.18-6.42,3.53c-1.52,2.35-2.27,5.46-2.27,9.33v30.56h20.33v7.37h-20.33v53.44h-21.27v-53.44h-5.35v-7.37h5.35v-21.79c0-8.36,2.92-14.97,8.76-19.82,5.84-4.86,12.35-7.29,19.53-7.29s13.6,2.59,19.26,7.76c5.66,5.17,8.49,11.94,8.49,20.3v5.48Z"/>
  <circle class="cls-1" cx="234.73" cy="253.59" r="13.26"/>
</svg>