<?xml version="1.0" encoding="UTF-8"?>
<svg id="Layer_1" data-name="Layer 1" xmlns="http://www.w3.org/2000/svg" xmlns:xlink="http://www.w3.org/1999/xlink" viewBox="0 0 425.2 425.2">
  <defs>
    <style>
      .cls-1 {
        fill: url(#linear-gradient);
      }

      .cls-2 {
        fill: #1d1d1b;
      }
    </style>
    <linearGradient id="linear-gradient" x1="290.35" y1="235.4" x2="355.49" y2="235.4" gradientTransform="translate(645.84 470.79) rotate(180)" gradientUnits="userSpaceOnUse">
      <stop offset=".07" stop-color="#023c59"/>
      <stop offset=".49" stop-color="#e63f28"/>
      <stop offset=".96" stop-color="#04ac90"/>
    </linearGradient>
  </defs>
  <path class="cls-2" d="m147.08,198.59h-11.51v-9.99c0-2.61-.48-4.67-1.45-6.18-.97-1.51-2.36-2.27-4.18-2.27s-3.22.77-4.22,2.32c-1,1.54-1.49,3.59-1.49,6.13v20.08h13.36v4.84h-13.36v35.12h-13.98v-35.12h-3.52v-4.84h3.52v-14.32c0-5.49,1.92-9.84,5.76-13.03,3.84-3.19,8.12-4.79,12.83-4.79s8.94,1.7,12.66,5.1c3.72,3.4,5.58,7.84,5.58,13.34v3.6Z"/>
  <path class="cls-2" d="m185.05,248.64h-30.06v-71.06h13.89v66.22h16.17v4.84Z"/>
  <path class="cls-2" d="m205.62,177.58v71.06h-13.98v-71.06h13.98Z"/>
  <path class="cls-2" d="m258.18,248.64h-13.27v-13.9c0-14.97-4.37-23-13.1-24.1v38h-13.89v-71.06h13.89v28.73c2.87-.75,5.46-2.61,7.78-5.56,2.31-2.95,3.47-6.38,3.47-10.3v-12.87h13.98v5.36c0,5.01-1.3,9.8-3.91,14.37-2.61,4.57-5.99,7.91-10.15,10.04,9.73,2.88,14.8,11.4,15.21,25.54v15.76Z"/>
  <path class="cls-2" d="m258.18,206.32c2.87-.75,5.46-2.61,7.78-5.56,2.31-2.95,3.47-6.38,3.47-10.3v-12.87h13.98v5.36c0,5.01-1.3,9.8-3.91,14.37-2.61,4.57-5.99,7.91-10.15,10.04,9.73,2.88,14.8,11.4,15.21,25.54v15.76h-13.27v-13.9c0-14.97-4.37-23-13.1-24.1"/>
  <rect class="cls-1" x="290.35" y="222.15" width="65.13" height="26.49" rx="13.25" ry="13.25" transform="translate(645.84 470.79) rotate(-180)"/>
</svg>